<mxfile host="app.diagrams.net" modified="2024-05-12T20:42:13.193Z" agent="Mozilla/5.0 (Windows NT 10.0; Win64; x64) AppleWebKit/537.36 (KHTML, like Gecko) Chrome/124.0.0.0 Safari/537.36" etag="3Mdd5Y2h0Zw0WkKpckkP" version="24.4.0" type="device">
  <diagram name="PÃ¡gina-1" id="yCXKUhJCKFA4CeJcUhhr">
    <mxGraphModel dx="3771" dy="653" grid="1" gridSize="10" guides="1" tooltips="1" connect="1" arrows="1" fold="1" page="1" pageScale="1" pageWidth="827" pageHeight="1169" math="0" shadow="0">
      <root>
        <mxCell id="0" />
        <mxCell id="1" parent="0" />
        <mxCell id="kGZ94C1YmgEiN0qZ-Q4X-8" style="edgeStyle=orthogonalEdgeStyle;rounded=0;orthogonalLoop=1;jettySize=auto;html=1;exitX=0.5;exitY=1;exitDx=0;exitDy=0;" edge="1" parent="1" source="kGZ94C1YmgEiN0qZ-Q4X-1" target="kGZ94C1YmgEiN0qZ-Q4X-5">
          <mxGeometry relative="1" as="geometry" />
        </mxCell>
        <mxCell id="kGZ94C1YmgEiN0qZ-Q4X-1" value="Algoritmo Practico 1 ejer 12" style="ellipse;whiteSpace=wrap;html=1;" vertex="1" parent="1">
          <mxGeometry x="316" y="20" width="196" height="80" as="geometry" />
        </mxCell>
        <mxCell id="kGZ94C1YmgEiN0qZ-Q4X-9" style="edgeStyle=orthogonalEdgeStyle;rounded=0;orthogonalLoop=1;jettySize=auto;html=1;exitX=0.5;exitY=1;exitDx=0;exitDy=0;entryX=0.5;entryY=0;entryDx=0;entryDy=0;" edge="1" parent="1" source="kGZ94C1YmgEiN0qZ-Q4X-4" target="kGZ94C1YmgEiN0qZ-Q4X-6">
          <mxGeometry relative="1" as="geometry" />
        </mxCell>
        <mxCell id="kGZ94C1YmgEiN0qZ-Q4X-4" value="entrada string color1 , color2 , color3 , color4" style="rounded=0;whiteSpace=wrap;html=1;" vertex="1" parent="1">
          <mxGeometry x="270" y="230" width="270" height="60" as="geometry" />
        </mxCell>
        <mxCell id="kGZ94C1YmgEiN0qZ-Q4X-7" style="edgeStyle=orthogonalEdgeStyle;rounded=0;orthogonalLoop=1;jettySize=auto;html=1;exitX=0.5;exitY=1;exitDx=0;exitDy=0;entryX=0.5;entryY=0;entryDx=0;entryDy=0;" edge="1" parent="1" source="kGZ94C1YmgEiN0qZ-Q4X-5" target="kGZ94C1YmgEiN0qZ-Q4X-4">
          <mxGeometry relative="1" as="geometry" />
        </mxCell>
        <mxCell id="kGZ94C1YmgEiN0qZ-Q4X-5" value="entrada numb1 , numb2 , numb3 , numb4" style="rounded=0;whiteSpace=wrap;html=1;" vertex="1" parent="1">
          <mxGeometry x="270" y="140" width="280" height="60" as="geometry" />
        </mxCell>
        <mxCell id="kGZ94C1YmgEiN0qZ-Q4X-10" style="edgeStyle=orthogonalEdgeStyle;rounded=0;orthogonalLoop=1;jettySize=auto;html=1;exitX=1;exitY=0.5;exitDx=0;exitDy=0;" edge="1" parent="1" source="kGZ94C1YmgEiN0qZ-Q4X-6">
          <mxGeometry relative="1" as="geometry">
            <mxPoint x="760" y="420" as="targetPoint" />
          </mxGeometry>
        </mxCell>
        <mxCell id="kGZ94C1YmgEiN0qZ-Q4X-12" value="V" style="edgeLabel;html=1;align=center;verticalAlign=middle;resizable=0;points=[];" vertex="1" connectable="0" parent="kGZ94C1YmgEiN0qZ-Q4X-10">
          <mxGeometry x="0.2423" y="4" relative="1" as="geometry">
            <mxPoint as="offset" />
          </mxGeometry>
        </mxCell>
        <mxCell id="kGZ94C1YmgEiN0qZ-Q4X-11" style="edgeStyle=orthogonalEdgeStyle;rounded=0;orthogonalLoop=1;jettySize=auto;html=1;exitX=0;exitY=0.5;exitDx=0;exitDy=0;" edge="1" parent="1" source="kGZ94C1YmgEiN0qZ-Q4X-6" target="kGZ94C1YmgEiN0qZ-Q4X-15">
          <mxGeometry relative="1" as="geometry">
            <mxPoint x="120" y="410" as="targetPoint" />
          </mxGeometry>
        </mxCell>
        <mxCell id="kGZ94C1YmgEiN0qZ-Q4X-13" value="F" style="edgeLabel;html=1;align=center;verticalAlign=middle;resizable=0;points=[];" vertex="1" connectable="0" parent="kGZ94C1YmgEiN0qZ-Q4X-11">
          <mxGeometry x="-0.0155" y="-2" relative="1" as="geometry">
            <mxPoint as="offset" />
          </mxGeometry>
        </mxCell>
        <mxCell id="kGZ94C1YmgEiN0qZ-Q4X-6" value="&lt;br&gt;&lt;div style=&quot;background-color: rgb(255, 255, 255); font-family: Consolas, &amp;quot;Courier New&amp;quot;, monospace; font-weight: normal; font-size: 14px; line-height: 19px; white-space: pre;&quot;&gt;&lt;div style=&quot;&quot;&gt;&lt;span style=&quot;color: rgb(59, 59, 59);&quot;&gt;color1 &lt;/span&gt;&lt;span style=&quot;color: rgb(0, 0, 0);&quot;&gt;=&lt;/span&gt;&lt;span style=&quot;color: rgb(59, 59, 59);&quot;&gt; color4 &lt;/span&gt;y&lt;span style=&quot;color: rgb(59, 59, 59);&quot;&gt; color4 &lt;/span&gt;&lt;span style=&quot;color: rgb(0, 0, 0);&quot;&gt;=&lt;/span&gt;&lt;span style=&quot;color: rgb(59, 59, 59);&quot;&gt; color2 &lt;/span&gt;y&lt;span style=&quot;color: rgb(59, 59, 59);&quot;&gt; color4 &lt;/span&gt;&lt;span style=&quot;color: rgb(0, 0, 0);&quot;&gt;=&lt;/span&gt;&lt;span style=&quot;color: rgb(59, 59, 59);&quot;&gt; color3&lt;/span&gt;&lt;/div&gt;&lt;/div&gt;" style="rhombus;whiteSpace=wrap;html=1;" vertex="1" parent="1">
          <mxGeometry x="165" y="320" width="490" height="80" as="geometry" />
        </mxCell>
        <mxCell id="kGZ94C1YmgEiN0qZ-Q4X-56" style="edgeStyle=orthogonalEdgeStyle;rounded=0;orthogonalLoop=1;jettySize=auto;html=1;exitX=0.5;exitY=1;exitDx=0;exitDy=0;" edge="1" parent="1" source="kGZ94C1YmgEiN0qZ-Q4X-14" target="kGZ94C1YmgEiN0qZ-Q4X-49">
          <mxGeometry relative="1" as="geometry" />
        </mxCell>
        <mxCell id="kGZ94C1YmgEiN0qZ-Q4X-14" value="mostrar &quot;1 2 3&quot;" style="shape=parallelogram;perimeter=parallelogramPerimeter;whiteSpace=wrap;html=1;fixedSize=1;" vertex="1" parent="1">
          <mxGeometry x="690" y="420" width="120" height="60" as="geometry" />
        </mxCell>
        <mxCell id="kGZ94C1YmgEiN0qZ-Q4X-16" style="edgeStyle=orthogonalEdgeStyle;rounded=0;orthogonalLoop=1;jettySize=auto;html=1;exitX=1;exitY=0.5;exitDx=0;exitDy=0;" edge="1" parent="1" source="kGZ94C1YmgEiN0qZ-Q4X-15">
          <mxGeometry relative="1" as="geometry">
            <mxPoint x="450" y="510" as="targetPoint" />
          </mxGeometry>
        </mxCell>
        <mxCell id="kGZ94C1YmgEiN0qZ-Q4X-18" value="V" style="edgeLabel;html=1;align=center;verticalAlign=middle;resizable=0;points=[];" vertex="1" connectable="0" parent="kGZ94C1YmgEiN0qZ-Q4X-16">
          <mxGeometry x="0.0286" y="-3" relative="1" as="geometry">
            <mxPoint as="offset" />
          </mxGeometry>
        </mxCell>
        <mxCell id="kGZ94C1YmgEiN0qZ-Q4X-17" style="edgeStyle=orthogonalEdgeStyle;rounded=0;orthogonalLoop=1;jettySize=auto;html=1;exitX=0;exitY=0.5;exitDx=0;exitDy=0;" edge="1" parent="1" source="kGZ94C1YmgEiN0qZ-Q4X-15" target="kGZ94C1YmgEiN0qZ-Q4X-21">
          <mxGeometry relative="1" as="geometry">
            <mxPoint x="-170" y="510" as="targetPoint" />
          </mxGeometry>
        </mxCell>
        <mxCell id="kGZ94C1YmgEiN0qZ-Q4X-19" value="F" style="edgeLabel;html=1;align=center;verticalAlign=middle;resizable=0;points=[];" vertex="1" connectable="0" parent="kGZ94C1YmgEiN0qZ-Q4X-17">
          <mxGeometry x="-0.081" y="-1" relative="1" as="geometry">
            <mxPoint as="offset" />
          </mxGeometry>
        </mxCell>
        <mxCell id="kGZ94C1YmgEiN0qZ-Q4X-15" value="&lt;br&gt;&lt;div style=&quot;background-color: rgb(255, 255, 255); font-family: Consolas, &amp;quot;Courier New&amp;quot;, monospace; font-weight: normal; font-size: 14px; line-height: 19px; white-space: pre;&quot;&gt;&lt;div style=&quot;&quot;&gt;&lt;span style=&quot;color: rgb(59, 59, 59);&quot;&gt;color4 &lt;/span&gt;&lt;span style=&quot;color: rgb(0, 0, 0);&quot;&gt;=&lt;/span&gt;&lt;span style=&quot;color: rgb(59, 59, 59);&quot;&gt; color1 &lt;/span&gt;y&lt;span style=&quot;color: rgb(59, 59, 59);&quot;&gt; color4 &lt;/span&gt;=&lt;span style=&quot;color: rgb(59, 59, 59);&quot;&gt; color2 &lt;/span&gt;y&lt;span style=&quot;color: rgb(59, 59, 59);&quot;&gt; color4 &lt;/span&gt;&lt;span style=&quot;color: rgb(0, 0, 0);&quot;&gt;!=&lt;/span&gt;&lt;span style=&quot;color: rgb(59, 59, 59);&quot;&gt; color3&lt;/span&gt;&lt;/div&gt;&lt;/div&gt;&lt;div&gt;&lt;br/&gt;&lt;/div&gt;" style="rhombus;whiteSpace=wrap;html=1;" vertex="1" parent="1">
          <mxGeometry x="-110" y="400" width="480" height="80" as="geometry" />
        </mxCell>
        <mxCell id="kGZ94C1YmgEiN0qZ-Q4X-55" style="edgeStyle=orthogonalEdgeStyle;rounded=0;orthogonalLoop=1;jettySize=auto;html=1;exitX=0.5;exitY=1;exitDx=0;exitDy=0;" edge="1" parent="1" source="kGZ94C1YmgEiN0qZ-Q4X-20" target="kGZ94C1YmgEiN0qZ-Q4X-49">
          <mxGeometry relative="1" as="geometry" />
        </mxCell>
        <mxCell id="kGZ94C1YmgEiN0qZ-Q4X-20" value="mostrar &quot;1 2&quot;" style="shape=parallelogram;perimeter=parallelogramPerimeter;whiteSpace=wrap;html=1;fixedSize=1;" vertex="1" parent="1">
          <mxGeometry x="392" y="510" width="120" height="60" as="geometry" />
        </mxCell>
        <mxCell id="kGZ94C1YmgEiN0qZ-Q4X-22" style="edgeStyle=orthogonalEdgeStyle;rounded=0;orthogonalLoop=1;jettySize=auto;html=1;exitX=1;exitY=0.5;exitDx=0;exitDy=0;" edge="1" parent="1" source="kGZ94C1YmgEiN0qZ-Q4X-21">
          <mxGeometry relative="1" as="geometry">
            <mxPoint x="200" y="620" as="targetPoint" />
          </mxGeometry>
        </mxCell>
        <mxCell id="kGZ94C1YmgEiN0qZ-Q4X-24" value="V" style="edgeLabel;html=1;align=center;verticalAlign=middle;resizable=0;points=[];" vertex="1" connectable="0" parent="kGZ94C1YmgEiN0qZ-Q4X-22">
          <mxGeometry x="0.0759" y="3" relative="1" as="geometry">
            <mxPoint as="offset" />
          </mxGeometry>
        </mxCell>
        <mxCell id="kGZ94C1YmgEiN0qZ-Q4X-23" style="edgeStyle=orthogonalEdgeStyle;rounded=0;orthogonalLoop=1;jettySize=auto;html=1;exitX=0;exitY=0.5;exitDx=0;exitDy=0;" edge="1" parent="1" source="kGZ94C1YmgEiN0qZ-Q4X-21" target="kGZ94C1YmgEiN0qZ-Q4X-27">
          <mxGeometry relative="1" as="geometry">
            <mxPoint x="-450" y="620" as="targetPoint" />
          </mxGeometry>
        </mxCell>
        <mxCell id="kGZ94C1YmgEiN0qZ-Q4X-25" value="F" style="edgeLabel;html=1;align=center;verticalAlign=middle;resizable=0;points=[];" vertex="1" connectable="0" parent="kGZ94C1YmgEiN0qZ-Q4X-23">
          <mxGeometry x="-0.1323" y="-3" relative="1" as="geometry">
            <mxPoint as="offset" />
          </mxGeometry>
        </mxCell>
        <mxCell id="kGZ94C1YmgEiN0qZ-Q4X-21" value="&lt;br&gt;&lt;div style=&quot;background-color: rgb(255, 255, 255); font-family: Consolas, &amp;quot;Courier New&amp;quot;, monospace; font-weight: normal; font-size: 14px; line-height: 19px; white-space: pre;&quot;&gt;&lt;div style=&quot;&quot;&gt;&lt;span style=&quot;color: rgb(59, 59, 59);&quot;&gt;color4 &lt;/span&gt;&lt;span style=&quot;color: rgb(0, 0, 0);&quot;&gt;=&lt;/span&gt;&lt;span style=&quot;color: rgb(59, 59, 59);&quot;&gt; color2 &lt;/span&gt;y&lt;span style=&quot;color: rgb(59, 59, 59);&quot;&gt; color4 &lt;/span&gt;&lt;span style=&quot;color: rgb(0, 0, 0);&quot;&gt;=&lt;/span&gt;&lt;span style=&quot;color: rgb(59, 59, 59);&quot;&gt; color3 &lt;/span&gt;y&lt;span style=&quot;color: rgb(59, 59, 59);&quot;&gt; color4 &lt;/span&gt;&lt;span style=&quot;color: rgb(0, 0, 0);&quot;&gt;!=&lt;/span&gt;&lt;span style=&quot;color: rgb(59, 59, 59);&quot;&gt; color1&lt;/span&gt;&lt;/div&gt;&lt;/div&gt;&lt;div&gt;&lt;br/&gt;&lt;/div&gt;" style="rhombus;whiteSpace=wrap;html=1;" vertex="1" parent="1">
          <mxGeometry x="-380" y="490" width="480" height="80" as="geometry" />
        </mxCell>
        <mxCell id="kGZ94C1YmgEiN0qZ-Q4X-54" style="edgeStyle=orthogonalEdgeStyle;rounded=0;orthogonalLoop=1;jettySize=auto;html=1;exitX=0.5;exitY=1;exitDx=0;exitDy=0;" edge="1" parent="1" source="kGZ94C1YmgEiN0qZ-Q4X-26" target="kGZ94C1YmgEiN0qZ-Q4X-49">
          <mxGeometry relative="1" as="geometry" />
        </mxCell>
        <mxCell id="kGZ94C1YmgEiN0qZ-Q4X-26" value="mostrar &quot;2 3&quot;" style="shape=parallelogram;perimeter=parallelogramPerimeter;whiteSpace=wrap;html=1;fixedSize=1;" vertex="1" parent="1">
          <mxGeometry x="140" y="620" width="120" height="60" as="geometry" />
        </mxCell>
        <mxCell id="kGZ94C1YmgEiN0qZ-Q4X-28" style="edgeStyle=orthogonalEdgeStyle;rounded=0;orthogonalLoop=1;jettySize=auto;html=1;exitX=1;exitY=0.5;exitDx=0;exitDy=0;" edge="1" parent="1" source="kGZ94C1YmgEiN0qZ-Q4X-27">
          <mxGeometry relative="1" as="geometry">
            <mxPoint y="690" as="targetPoint" />
          </mxGeometry>
        </mxCell>
        <mxCell id="kGZ94C1YmgEiN0qZ-Q4X-30" value="V" style="edgeLabel;html=1;align=center;verticalAlign=middle;resizable=0;points=[];" vertex="1" connectable="0" parent="kGZ94C1YmgEiN0qZ-Q4X-28">
          <mxGeometry x="0.2178" y="1" relative="1" as="geometry">
            <mxPoint as="offset" />
          </mxGeometry>
        </mxCell>
        <mxCell id="kGZ94C1YmgEiN0qZ-Q4X-29" style="edgeStyle=orthogonalEdgeStyle;rounded=0;orthogonalLoop=1;jettySize=auto;html=1;exitX=0;exitY=0.5;exitDx=0;exitDy=0;" edge="1" parent="1" source="kGZ94C1YmgEiN0qZ-Q4X-27">
          <mxGeometry relative="1" as="geometry">
            <mxPoint x="-800" y="680" as="targetPoint" />
          </mxGeometry>
        </mxCell>
        <mxCell id="kGZ94C1YmgEiN0qZ-Q4X-31" value="F" style="edgeLabel;html=1;align=center;verticalAlign=middle;resizable=0;points=[];" vertex="1" connectable="0" parent="kGZ94C1YmgEiN0qZ-Q4X-29">
          <mxGeometry x="0.2742" y="-1" relative="1" as="geometry">
            <mxPoint as="offset" />
          </mxGeometry>
        </mxCell>
        <mxCell id="kGZ94C1YmgEiN0qZ-Q4X-27" value="&lt;br&gt;&lt;div style=&quot;background-color: rgb(255, 255, 255); font-family: Consolas, &amp;quot;Courier New&amp;quot;, monospace; font-weight: normal; font-size: 14px; line-height: 19px; white-space: pre;&quot;&gt;&lt;div style=&quot;&quot;&gt;&lt;span style=&quot;color: rgb(59, 59, 59);&quot;&gt;color4 &lt;/span&gt;&lt;span style=&quot;color: rgb(0, 0, 0);&quot;&gt;=&lt;/span&gt;&lt;span style=&quot;color: rgb(59, 59, 59);&quot;&gt; color1 &lt;/span&gt;y&lt;span style=&quot;color: rgb(59, 59, 59);&quot;&gt; color4 &lt;/span&gt;&lt;span style=&quot;color: rgb(0, 0, 0);&quot;&gt;=&lt;/span&gt;&lt;span style=&quot;color: rgb(59, 59, 59);&quot;&gt; color3 &lt;/span&gt;y&lt;span style=&quot;color: rgb(59, 59, 59);&quot;&gt; color4 &lt;/span&gt;&lt;span style=&quot;color: rgb(0, 0, 0);&quot;&gt;!=&lt;/span&gt;&lt;span style=&quot;color: rgb(59, 59, 59);&quot;&gt; color2 &lt;/span&gt;y&lt;span style=&quot;color: rgb(59, 59, 59);&quot;&gt; numb4 &lt;/span&gt;&lt;span style=&quot;color: rgb(0, 0, 0);&quot;&gt;=&lt;/span&gt;&lt;span style=&quot;color: rgb(59, 59, 59);&quot;&gt; numb1&lt;/span&gt;&lt;/div&gt;&lt;/div&gt;&lt;div&gt;&lt;br/&gt;&lt;/div&gt;" style="rhombus;whiteSpace=wrap;html=1;" vertex="1" parent="1">
          <mxGeometry x="-720" y="584.5" width="630" height="80" as="geometry" />
        </mxCell>
        <mxCell id="kGZ94C1YmgEiN0qZ-Q4X-53" style="edgeStyle=orthogonalEdgeStyle;rounded=0;orthogonalLoop=1;jettySize=auto;html=1;exitX=0.5;exitY=1;exitDx=0;exitDy=0;" edge="1" parent="1" source="kGZ94C1YmgEiN0qZ-Q4X-32" target="kGZ94C1YmgEiN0qZ-Q4X-49">
          <mxGeometry relative="1" as="geometry" />
        </mxCell>
        <mxCell id="kGZ94C1YmgEiN0qZ-Q4X-32" value="mostrar &quot;1 3&quot;" style="shape=parallelogram;perimeter=parallelogramPerimeter;whiteSpace=wrap;html=1;fixedSize=1;" vertex="1" parent="1">
          <mxGeometry x="-60" y="690" width="120" height="60" as="geometry" />
        </mxCell>
        <mxCell id="kGZ94C1YmgEiN0qZ-Q4X-34" style="edgeStyle=orthogonalEdgeStyle;rounded=0;orthogonalLoop=1;jettySize=auto;html=1;exitX=1;exitY=0.5;exitDx=0;exitDy=0;" edge="1" parent="1" source="kGZ94C1YmgEiN0qZ-Q4X-33">
          <mxGeometry relative="1" as="geometry">
            <mxPoint x="-470" y="780" as="targetPoint" />
          </mxGeometry>
        </mxCell>
        <mxCell id="kGZ94C1YmgEiN0qZ-Q4X-36" value="V" style="edgeLabel;html=1;align=center;verticalAlign=middle;resizable=0;points=[];" vertex="1" connectable="0" parent="kGZ94C1YmgEiN0qZ-Q4X-34">
          <mxGeometry x="0.1721" y="-2" relative="1" as="geometry">
            <mxPoint as="offset" />
          </mxGeometry>
        </mxCell>
        <mxCell id="kGZ94C1YmgEiN0qZ-Q4X-35" style="edgeStyle=orthogonalEdgeStyle;rounded=0;orthogonalLoop=1;jettySize=auto;html=1;exitX=0;exitY=0.5;exitDx=0;exitDy=0;" edge="1" parent="1" source="kGZ94C1YmgEiN0qZ-Q4X-33">
          <mxGeometry relative="1" as="geometry">
            <mxPoint x="-1120" y="790" as="targetPoint" />
          </mxGeometry>
        </mxCell>
        <mxCell id="kGZ94C1YmgEiN0qZ-Q4X-37" value="F" style="edgeLabel;html=1;align=center;verticalAlign=middle;resizable=0;points=[];" vertex="1" connectable="0" parent="kGZ94C1YmgEiN0qZ-Q4X-35">
          <mxGeometry x="0.077" y="-1" relative="1" as="geometry">
            <mxPoint as="offset" />
          </mxGeometry>
        </mxCell>
        <mxCell id="kGZ94C1YmgEiN0qZ-Q4X-33" value="&lt;br&gt;&lt;div style=&quot;background-color: rgb(255, 255, 255); font-family: Consolas, &amp;quot;Courier New&amp;quot;, monospace; font-weight: normal; font-size: 14px; line-height: 19px; white-space: pre;&quot;&gt;&lt;div style=&quot;&quot;&gt;&lt;span style=&quot;color: rgb(59, 59, 59);&quot;&gt;color4 &lt;/span&gt;&lt;span style=&quot;color: rgb(0, 0, 0);&quot;&gt;=&lt;/span&gt;&lt;span style=&quot;color: rgb(59, 59, 59);&quot;&gt; color1 &lt;/span&gt;y&lt;span style=&quot;color: rgb(59, 59, 59);&quot;&gt; color4 &lt;/span&gt;&lt;span style=&quot;color: rgb(0, 0, 0);&quot;&gt;!=&lt;/span&gt;&lt;span style=&quot;color: rgb(59, 59, 59);&quot;&gt; color2 &lt;/span&gt;y&lt;span style=&quot;color: rgb(59, 59, 59);&quot;&gt; color4 &lt;/span&gt;&lt;span style=&quot;color: rgb(0, 0, 0);&quot;&gt;!=&lt;/span&gt;&lt;span style=&quot;color: rgb(59, 59, 59);&quot;&gt; color3&lt;/span&gt;&lt;/div&gt;&lt;/div&gt;&lt;div&gt;&lt;br/&gt;&lt;/div&gt;" style="rhombus;whiteSpace=wrap;html=1;" vertex="1" parent="1">
          <mxGeometry x="-1040" y="680" width="480" height="80" as="geometry" />
        </mxCell>
        <mxCell id="kGZ94C1YmgEiN0qZ-Q4X-52" style="edgeStyle=orthogonalEdgeStyle;rounded=0;orthogonalLoop=1;jettySize=auto;html=1;exitX=0.5;exitY=1;exitDx=0;exitDy=0;" edge="1" parent="1" source="kGZ94C1YmgEiN0qZ-Q4X-38" target="kGZ94C1YmgEiN0qZ-Q4X-49">
          <mxGeometry relative="1" as="geometry" />
        </mxCell>
        <mxCell id="kGZ94C1YmgEiN0qZ-Q4X-38" value="mostrar &quot;1&quot;" style="shape=parallelogram;perimeter=parallelogramPerimeter;whiteSpace=wrap;html=1;fixedSize=1;" vertex="1" parent="1">
          <mxGeometry x="-533" y="780" width="120" height="60" as="geometry" />
        </mxCell>
        <mxCell id="kGZ94C1YmgEiN0qZ-Q4X-40" style="edgeStyle=orthogonalEdgeStyle;rounded=0;orthogonalLoop=1;jettySize=auto;html=1;exitX=1;exitY=0.5;exitDx=0;exitDy=0;" edge="1" parent="1" source="kGZ94C1YmgEiN0qZ-Q4X-39">
          <mxGeometry relative="1" as="geometry">
            <mxPoint x="-800" y="890" as="targetPoint" />
          </mxGeometry>
        </mxCell>
        <mxCell id="kGZ94C1YmgEiN0qZ-Q4X-42" value="V" style="edgeLabel;html=1;align=center;verticalAlign=middle;resizable=0;points=[];" vertex="1" connectable="0" parent="kGZ94C1YmgEiN0qZ-Q4X-40">
          <mxGeometry x="0.1075" y="1" relative="1" as="geometry">
            <mxPoint as="offset" />
          </mxGeometry>
        </mxCell>
        <mxCell id="kGZ94C1YmgEiN0qZ-Q4X-41" style="edgeStyle=orthogonalEdgeStyle;rounded=0;orthogonalLoop=1;jettySize=auto;html=1;exitX=0;exitY=0.5;exitDx=0;exitDy=0;" edge="1" parent="1" source="kGZ94C1YmgEiN0qZ-Q4X-39">
          <mxGeometry relative="1" as="geometry">
            <mxPoint x="-1450" y="880" as="targetPoint" />
          </mxGeometry>
        </mxCell>
        <mxCell id="kGZ94C1YmgEiN0qZ-Q4X-43" value="F" style="edgeLabel;html=1;align=center;verticalAlign=middle;resizable=0;points=[];" vertex="1" connectable="0" parent="kGZ94C1YmgEiN0qZ-Q4X-41">
          <mxGeometry x="0.2645" relative="1" as="geometry">
            <mxPoint as="offset" />
          </mxGeometry>
        </mxCell>
        <mxCell id="kGZ94C1YmgEiN0qZ-Q4X-39" value="&lt;br&gt;&lt;div style=&quot;background-color: rgb(255, 255, 255); font-family: Consolas, &amp;quot;Courier New&amp;quot;, monospace; font-weight: normal; font-size: 14px; line-height: 19px; white-space: pre;&quot;&gt;&lt;div style=&quot;&quot;&gt;&lt;span style=&quot;color: rgb(59, 59, 59);&quot;&gt;color4 &lt;/span&gt;&lt;span style=&quot;color: rgb(0, 0, 0);&quot;&gt;=&lt;/span&gt;&lt;span style=&quot;color: rgb(59, 59, 59);&quot;&gt; color2 &lt;/span&gt;y&lt;span style=&quot;color: rgb(59, 59, 59);&quot;&gt; color4 &lt;/span&gt;&lt;span style=&quot;color: rgb(0, 0, 0);&quot;&gt;!=&lt;/span&gt;&lt;span style=&quot;color: rgb(59, 59, 59);&quot;&gt; color1 &lt;/span&gt;y&lt;span style=&quot;color: rgb(59, 59, 59);&quot;&gt; color4 &lt;/span&gt;&lt;span style=&quot;color: rgb(0, 0, 0);&quot;&gt;!=&lt;/span&gt;&lt;span style=&quot;color: rgb(59, 59, 59);&quot;&gt; color3&lt;/span&gt;&lt;/div&gt;&lt;/div&gt;&lt;div&gt;&lt;br/&gt;&lt;/div&gt;" style="rhombus;whiteSpace=wrap;html=1;" vertex="1" parent="1">
          <mxGeometry x="-1360" y="790" width="480" height="80" as="geometry" />
        </mxCell>
        <mxCell id="kGZ94C1YmgEiN0qZ-Q4X-51" style="edgeStyle=orthogonalEdgeStyle;rounded=0;orthogonalLoop=1;jettySize=auto;html=1;exitX=0.5;exitY=1;exitDx=0;exitDy=0;" edge="1" parent="1" source="kGZ94C1YmgEiN0qZ-Q4X-44" target="kGZ94C1YmgEiN0qZ-Q4X-49">
          <mxGeometry relative="1" as="geometry" />
        </mxCell>
        <mxCell id="kGZ94C1YmgEiN0qZ-Q4X-44" value="mostrar &quot;2&quot;" style="shape=parallelogram;perimeter=parallelogramPerimeter;whiteSpace=wrap;html=1;fixedSize=1;" vertex="1" parent="1">
          <mxGeometry x="-860" y="890" width="120" height="60" as="geometry" />
        </mxCell>
        <mxCell id="kGZ94C1YmgEiN0qZ-Q4X-46" style="edgeStyle=orthogonalEdgeStyle;rounded=0;orthogonalLoop=1;jettySize=auto;html=1;exitX=1;exitY=0.5;exitDx=0;exitDy=0;" edge="1" parent="1" source="kGZ94C1YmgEiN0qZ-Q4X-45">
          <mxGeometry relative="1" as="geometry">
            <mxPoint x="-1120" y="1010" as="targetPoint" />
          </mxGeometry>
        </mxCell>
        <mxCell id="kGZ94C1YmgEiN0qZ-Q4X-47" value="V" style="edgeLabel;html=1;align=center;verticalAlign=middle;resizable=0;points=[];" vertex="1" connectable="0" parent="kGZ94C1YmgEiN0qZ-Q4X-46">
          <mxGeometry x="-0.0593" y="2" relative="1" as="geometry">
            <mxPoint as="offset" />
          </mxGeometry>
        </mxCell>
        <mxCell id="kGZ94C1YmgEiN0qZ-Q4X-45" value="&lt;br&gt;&lt;div style=&quot;background-color: rgb(255, 255, 255); font-family: Consolas, &amp;quot;Courier New&amp;quot;, monospace; font-weight: normal; font-size: 14px; line-height: 19px; white-space: pre;&quot;&gt;&lt;div style=&quot;&quot;&gt;&lt;span style=&quot;color: rgb(59, 59, 59);&quot;&gt;color4 &lt;/span&gt;&lt;span style=&quot;color: rgb(0, 0, 0);&quot;&gt;=&lt;/span&gt;&lt;span style=&quot;color: rgb(59, 59, 59);&quot;&gt; color3 &lt;/span&gt;y&lt;span style=&quot;color: rgb(59, 59, 59);&quot;&gt; color4 &lt;/span&gt;&lt;span style=&quot;color: rgb(0, 0, 0);&quot;&gt;!=&lt;/span&gt;&lt;span style=&quot;color: rgb(59, 59, 59);&quot;&gt; color2 &lt;/span&gt;y&lt;span style=&quot;color: rgb(59, 59, 59);&quot;&gt; numb4 &lt;/span&gt;&lt;span style=&quot;color: rgb(0, 0, 0);&quot;&gt;=&lt;/span&gt;&lt;span style=&quot;color: rgb(59, 59, 59);&quot;&gt; numb3&lt;/span&gt;&lt;/div&gt;&lt;/div&gt;&lt;div&gt;&lt;br/&gt;&lt;/div&gt;" style="rhombus;whiteSpace=wrap;html=1;" vertex="1" parent="1">
          <mxGeometry x="-1710" y="880" width="520" height="80" as="geometry" />
        </mxCell>
        <mxCell id="kGZ94C1YmgEiN0qZ-Q4X-50" style="edgeStyle=orthogonalEdgeStyle;rounded=0;orthogonalLoop=1;jettySize=auto;html=1;exitX=1;exitY=0.5;exitDx=0;exitDy=0;entryX=0.5;entryY=0;entryDx=0;entryDy=0;" edge="1" parent="1" source="kGZ94C1YmgEiN0qZ-Q4X-48" target="kGZ94C1YmgEiN0qZ-Q4X-49">
          <mxGeometry relative="1" as="geometry" />
        </mxCell>
        <mxCell id="kGZ94C1YmgEiN0qZ-Q4X-48" value="mostrar &quot;3&quot;" style="shape=parallelogram;perimeter=parallelogramPerimeter;whiteSpace=wrap;html=1;fixedSize=1;" vertex="1" parent="1">
          <mxGeometry x="-1180" y="1010" width="120" height="60" as="geometry" />
        </mxCell>
        <mxCell id="kGZ94C1YmgEiN0qZ-Q4X-49" value="FinAlgoritmo" style="ellipse;whiteSpace=wrap;html=1;" vertex="1" parent="1">
          <mxGeometry x="-460" y="1060" width="120" height="80" as="geometry" />
        </mxCell>
      </root>
    </mxGraphModel>
  </diagram>
</mxfile>
